<?xml version="1.0" standalone="no"?>
<!DOCTYPE svg PUBLIC "-//W3C//DTD SVG 20010904//EN"
 "http://www.w3.org/TR/2001/REC-SVG-20010904/DTD/svg10.dtd">
<svg version="1.0" xmlns="http://www.w3.org/2000/svg"
 width="430.000000pt" height="113.000000pt" viewBox="0 0 430.000000 113.000000"
 preserveAspectRatio="xMidYMid meet">

<g transform="translate(0.000000,113.000000) scale(0.100000,-0.100000)"
fill="#000000" stroke="none">
<path d="M660 1001 c0 -5 7 -25 15 -44 8 -20 15 -49 15 -65 0 -27 -4 -30 -55
-41 -73 -17 -73 -36 1 -28 l55 6 -3 -37 -3 -37 -72 -14 c-85 -16 -99 -36 -20
-28 28 3 62 8 75 12 20 7 22 4 22 -28 0 -32 -3 -35 -42 -45 -24 -6 -67 -14
-95 -18 -29 -3 -53 -10 -53 -15 0 -17 39 -18 108 0 39 11 74 15 77 11 3 -4 2
-21 -1 -38 -6 -28 -11 -31 -71 -42 -51 -10 -62 -15 -48 -22 11 -7 32 -6 61 2
25 7 47 10 50 8 3 -3 4 -42 2 -86 l-3 -81 -42 27 c-36 23 -41 30 -36 53 4 21
0 30 -15 38 -34 18 -42 13 -42 -24 0 -42 -28 -102 -73 -153 -54 -61 -61 -72
-48 -72 17 0 107 87 132 126 11 19 25 34 30 34 5 0 65 -42 132 -93 68 -52 135
-97 149 -100 28 -7 198 19 211 32 5 5 -15 12 -45 16 -96 12 -182 35 -251 67
l-68 31 3 46 c3 45 3 46 35 43 38 -4 143 24 143 38 0 20 -47 20 -107 2 -34
-11 -64 -18 -65 -16 -2 1 -2 21 0 43 4 38 7 41 41 47 111 19 106 17 103 54 -1
19 1 40 5 47 5 6 39 15 77 20 68 8 69 9 51 26 -14 15 -27 17 -62 12 -46 -7
-49 -5 -32 27 10 18 8 25 -11 40 -24 19 -60 24 -76 9 -5 -5 -26 -14 -46 -19
l-38 -10 0 38 c0 38 0 38 53 50 65 16 89 28 81 42 -7 10 -72 6 -108 -8 -18 -7
-18 -3 -12 45 l7 52 -35 14 c-40 17 -56 19 -56 6z m178 -273 c4 -31 -10 -39
-81 -52 l-38 -7 3 33 c2 28 9 35 38 45 52 18 74 13 78 -19z m-12 -84 c-3 -9
-6 -22 -6 -30 0 -14 -21 -25 -72 -38 -27 -6 -28 -5 -28 33 0 42 5 45 84 50 22
1 27 -2 22 -15z"/>
<path d="M3330 995 c0 -3 8 -18 18 -32 13 -22 17 -49 17 -132 l0 -104 -58 -16
c-32 -9 -57 -21 -55 -26 2 -6 29 -10 61 -9 l57 1 0 -94 0 -94 -52 -25 c-29
-13 -70 -27 -91 -30 -48 -8 -54 -20 -26 -50 31 -33 47 -30 107 15 29 21 95 67
147 101 123 81 126 102 6 40 -22 -11 -43 -20 -46 -20 -3 0 -5 38 -5 84 l0 84
42 14 c26 8 44 20 46 31 3 14 -4 17 -42 17 l-45 0 6 58 c3 31 9 73 14 92 13
53 12 59 -23 80 -30 18 -78 27 -78 15z"/>
<path d="M3690 988 c0 -12 63 -100 85 -118 12 -10 18 -10 30 0 22 18 18 44
-10 78 -25 30 -105 60 -105 40z"/>
<path d="M330 978 c1 -7 7 -24 15 -38 9 -16 14 -54 15 -102 l0 -77 -52 -16
c-28 -8 -60 -15 -69 -15 -28 0 -32 -19 -7 -29 15 -5 45 -5 77 1 29 5 55 7 58
4 3 -2 2 -34 -2 -70 -7 -64 -9 -67 -55 -101 -26 -19 -75 -49 -109 -66 -61 -29
-62 -31 -45 -50 31 -35 63 -24 131 43 34 34 65 59 69 55 4 -3 3 -53 -2 -109
l-9 -103 -38 1 c-37 1 -37 1 -22 -20 8 -11 23 -36 32 -53 22 -44 37 -41 59 10
16 35 18 64 16 176 l-3 135 43 43 c43 44 41 59 -5 23 -14 -11 -28 -20 -31 -20
-8 0 -6 81 3 104 4 10 27 26 51 35 66 24 66 45 0 39 l-53 -5 7 56 c3 31 9 72
12 91 5 33 3 37 -30 53 -43 20 -56 21 -56 5z"/>
<path d="M1457 983 c-4 -3 -7 -15 -7 -26 0 -11 -29 -48 -65 -83 -59 -58 -69
-64 -106 -64 -38 0 -41 -2 -34 -22 28 -89 36 -135 42 -220 l6 -97 -37 -6 c-20
-4 -36 -13 -36 -19 0 -17 58 -49 73 -39 72 44 238 168 230 170 -6 2 -48 -14
-92 -36 -44 -23 -85 -41 -91 -41 -6 0 -10 32 -10 78 l0 78 58 11 c76 14 135
39 130 55 -8 22 -37 20 -104 -6 -91 -37 -94 -36 -94 28 l0 53 116 69 c63 37
117 71 120 75 5 9 -58 49 -78 49 -8 0 -18 -3 -21 -7z"/>
<path d="M2675 879 c-30 -9 -207 -41 -300 -55 l-50 -7 30 -13 c19 -9 59 -13
110 -12 77 2 79 2 86 -22 11 -39 10 -358 0 -365 -13 -8 -274 -35 -338 -35 -60
0 -67 -12 -21 -36 35 -18 74 -16 228 12 101 18 455 26 536 12 30 -6 46 -4 60
7 19 15 18 15 -4 35 -43 36 -86 41 -221 25 -69 -8 -139 -15 -155 -15 l-29 0 7
143 c4 78 11 159 15 180 9 35 7 38 -22 54 l-32 17 40 7 c22 4 79 12 126 19
102 14 123 24 95 45 -22 17 -112 19 -161 4z"/>
<path d="M1785 832 c-47 -16 -91 -25 -132 -25 -35 0 -63 -1 -63 -3 0 -1 5 -15
12 -31 7 -18 13 -135 17 -321 3 -166 10 -293 15 -295 20 -5 27 69 33 339 l6
281 62 12 c84 15 103 14 114 -7 13 -24 -5 -170 -25 -200 -13 -19 -20 -21 -56
-15 l-42 6 49 -55 c28 -33 54 -54 62 -51 25 10 53 81 68 179 9 53 23 110 31
125 19 37 19 35 -23 64 -44 29 -38 29 -128 -3z"/>
<path d="M3850 785 c-52 -14 -142 -32 -200 -42 -58 -9 -109 -20 -114 -24 -5
-5 3 -13 17 -20 25 -11 59 -7 141 18 17 5 18 1 12 -33 -23 -126 -143 -290
-286 -391 -51 -36 -50 -45 3 -27 102 35 211 140 278 267 17 34 33 64 35 66 7
8 105 -33 114 -48 12 -24 -13 -140 -41 -190 -27 -49 -56 -63 -101 -50 -18 5
-36 9 -40 9 -4 0 12 -27 34 -60 23 -33 46 -60 50 -60 21 0 61 36 84 75 13 24
38 86 55 138 16 53 34 99 39 102 19 12 10 44 -21 69 -24 21 -41 26 -84 26 -83
0 -90 5 -65 47 20 34 20 37 4 54 -14 15 -14 19 -3 20 8 0 73 4 146 8 141 7
171 17 141 47 -25 26 -95 25 -198 -1z"/>
</g>
</svg>
