<?xml version="1.0" standalone="no"?>
<!DOCTYPE svg PUBLIC "-//W3C//DTD SVG 20010904//EN"
 "http://www.w3.org/TR/2001/REC-SVG-20010904/DTD/svg10.dtd">
<svg version="1.0" xmlns="http://www.w3.org/2000/svg"
 width="1052.000000pt" height="773.000000pt" viewBox="0 0 1052.000000 773.000000"
 preserveAspectRatio="xMidYMid meet">

<g transform="translate(0.000000,773.000000) scale(0.100000,-0.100000)"
fill="#000000" stroke="none">
<path d="M5020 7635 c-8 -2 -49 -9 -90 -15 -602 -95 -1111 -561 -1270 -1164
l-23 -86 -743 0 c-504 0 -760 -4 -796 -11 -92 -19 -177 -67 -249 -138 -71 -71
-107 -131 -135 -226 -18 -64 -17 -173 6 -635 5 -107 21 -442 35 -745 14 -302
32 -689 40 -860 8 -170 21 -458 30 -640 8 -181 19 -424 25 -540 5 -115 19
-408 30 -650 40 -852 50 -1030 65 -1095 80 -353 316 -631 640 -753 165 -61
-36 -57 2612 -57 2415 0 2419 0 2499 21 403 105 710 450 763 859 6 47 15 189
21 315 5 127 19 421 30 655 11 234 27 574 35 755 8 182 20 425 25 540 6 116
21 453 35 750 14 297 29 635 35 750 5 116 14 311 20 435 6 124 15 313 20 420
16 318 13 431 -11 502 -41 121 -130 229 -238 287 -115 61 -112 61 -933 61
l-746 0 -7 43 c-12 70 -84 267 -131 358 -232 449 -659 765 -1149 849 -86 15
-158 20 -273 19 -87 -1 -164 -3 -172 -4z m400 -656 c278 -68 516 -264 636
-525 19 -40 34 -75 34 -78 0 -3 -403 -6 -895 -6 l-895 0 11 28 c6 15 26 58 45
96 115 225 314 392 563 470 158 50 336 55 501 15z m-14 -1860 c223 -22 437
-81 631 -175 196 -96 267 -185 267 -339 0 -65 -4 -90 -26 -136 -33 -73 -84
-128 -150 -165 -49 -27 -61 -29 -153 -29 l-100 0 -130 62 c-246 116 -368 148
-555 147 -200 -2 -347 -53 -458 -157 -75 -72 -104 -132 -110 -229 -4 -69 -2
-84 22 -133 64 -131 194 -202 742 -405 352 -131 579 -251 747 -395 285 -245
413 -640 326 -1013 -92 -399 -454 -717 -935 -822 -414 -90 -856 -10 -1287 234
-158 89 -215 138 -257 220 -31 61 -35 77 -35 145 0 64 5 86 32 143 54 115 150
187 270 203 73 9 157 -15 260 -75 205 -121 416 -214 557 -245 213 -47 500 27
653 169 82 75 115 140 121 233 9 146 -48 266 -170 358 -81 61 -280 157 -488
235 -607 228 -765 311 -945 494 -138 139 -217 289 -245 469 -16 97 -7 329 15
409 77 278 270 511 540 650 257 132 534 179 861 147z"/>
</g>
</svg>
