<?xml version="1.0" standalone="no"?>
<!DOCTYPE svg PUBLIC "-//W3C//DTD SVG 20010904//EN"
 "http://www.w3.org/TR/2001/REC-SVG-20010904/DTD/svg10.dtd">
<svg version="1.0" xmlns="http://www.w3.org/2000/svg"
 width="1052.000000pt" height="773.000000pt" viewBox="0 0 1052.000000 773.000000"
 preserveAspectRatio="xMidYMid meet">

<g transform="translate(0.000000,773.000000) scale(0.100000,-0.100000)"
fill="#000000" stroke="none">
<path d="M4070 7663 c-14 -3 -29 -9 -34 -14 -6 -5 -51 -9 -101 -9 -50 0 -95
-4 -100 -9 -6 -5 -41 -12 -80 -16 -38 -3 -74 -10 -79 -15 -6 -6 -33 -10 -61
-10 -28 0 -55 -4 -61 -9 -5 -5 -34 -12 -64 -16 -30 -3 -56 -10 -58 -16 -2 -5
-26 -9 -53 -9 -27 0 -49 -4 -49 -9 0 -5 -22 -11 -50 -15 -27 -4 -50 -11 -50
-16 0 -6 -15 -10 -34 -10 -19 0 -38 -4 -41 -10 -3 -5 -16 -10 -28 -10 -12 0
-35 -7 -51 -15 -15 -8 -37 -15 -47 -15 -19 0 -26 -2 -87 -33 -19 -9 -45 -17
-58 -17 -13 0 -24 -4 -24 -10 0 -5 -8 -10 -17 -10 -10 0 -27 -7 -37 -15 -11
-8 -30 -15 -43 -15 -13 0 -23 -4 -23 -8 0 -5 -19 -16 -42 -26 -24 -9 -51 -21
-60 -27 -10 -5 -24 -9 -32 -9 -8 0 -16 -7 -20 -15 -3 -8 -15 -15 -26 -15 -11
0 -20 -4 -20 -9 0 -5 -11 -12 -25 -15 -14 -4 -25 -11 -25 -16 0 -6 -7 -10 -15
-10 -8 0 -15 -4 -15 -10 0 -5 -11 -10 -25 -10 -14 0 -25 -6 -25 -13 0 -7 -16
-19 -35 -27 -19 -8 -35 -19 -35 -25 0 -6 -16 -17 -35 -25 -19 -8 -43 -24 -52
-37 -10 -13 -23 -23 -30 -23 -7 0 -13 -4 -13 -10 0 -5 -16 -17 -35 -26 -19 -9
-35 -23 -35 -30 0 -8 -5 -14 -11 -14 -14 0 -39 -25 -39 -39 0 -6 -5 -11 -11
-11 -14 0 -39 -25 -39 -39 0 -6 -5 -11 -11 -11 -14 0 -39 -25 -39 -39 0 -6 -7
-11 -15 -11 -8 0 -15 -7 -15 -15 0 -8 -4 -15 -10 -15 -5 0 -10 -7 -10 -15 0
-7 -6 -18 -13 -22 -17 -11 -67 -79 -67 -92 0 -6 -3 -11 -7 -11 -5 0 -17 -18
-27 -40 -11 -22 -23 -40 -28 -40 -4 0 -8 -5 -8 -12 0 -18 -33 -88 -42 -88 -4
0 -8 -13 -8 -29 0 -16 -7 -34 -15 -41 -8 -7 -15 -21 -15 -31 0 -10 -4 -21 -10
-24 -5 -3 -10 -24 -10 -45 0 -21 -4 -41 -9 -45 -5 -3 -13 -31 -17 -63 -3 -31
-10 -62 -15 -67 -4 -6 -10 -60 -13 -120 -15 -331 -27 -540 -36 -625 -6 -60
-10 -711 -10 -1772 0 -1552 1 -1681 17 -1733 9 -30 21 -55 25 -55 4 0 8 -7 8
-15 0 -8 4 -15 9 -15 14 0 41 -60 41 -92 0 -15 4 -28 9 -28 4 0 11 -21 14 -47
3 -26 10 -49 16 -51 6 -2 11 -19 11 -38 0 -19 5 -34 10 -34 6 0 10 -10 10 -23
0 -13 7 -32 15 -43 8 -10 15 -29 15 -41 0 -13 4 -23 10 -23 5 0 12 -16 16 -35
3 -19 10 -35 15 -35 5 0 9 -11 9 -25 0 -14 5 -25 10 -25 6 0 10 -11 10 -24 0
-13 7 -26 15 -30 8 -3 15 -15 15 -26 0 -11 4 -20 9 -20 5 0 12 -11 15 -25 4
-14 11 -25 16 -25 6 0 10 -7 10 -15 0 -8 5 -15 10 -15 6 0 10 -9 10 -20 0 -11
7 -23 15 -26 8 -4 15 -12 15 -20 0 -8 5 -14 10 -14 6 0 10 -7 10 -15 0 -9 11
-26 23 -38 13 -12 26 -26 28 -32 11 -28 56 -85 67 -85 6 0 12 -4 12 -8 0 -12
149 -162 161 -162 5 0 9 -7 9 -15 0 -8 5 -15 11 -15 14 0 39 -25 39 -39 0 -6
7 -11 15 -11 8 0 15 -4 15 -10 0 -5 7 -10 15 -10 9 0 26 -11 39 -25 13 -14 26
-25 30 -25 4 0 22 -11 40 -25 18 -14 40 -25 48 -25 9 0 18 -7 22 -15 3 -8 15
-15 26 -15 11 0 20 -4 20 -10 0 -5 11 -10 24 -10 13 0 26 -7 30 -15 3 -8 17
-15 31 -15 14 0 25 -4 25 -10 0 -5 16 -10 35 -10 24 0 35 -5 35 -15 0 -11 12
-15 50 -15 28 0 50 -4 50 -10 0 -6 27 -10 60 -10 45 0 62 -4 66 -15 5 -11 23
-15 74 -15 38 0 72 -4 75 -10 3 -5 30 -10 59 -10 30 0 70 -7 89 -15 20 -8 61
-15 91 -15 30 0 58 -4 61 -10 3 -5 47 -10 96 -10 50 0 99 -5 110 -11 11 -6 82
-13 157 -16 75 -3 141 -9 147 -14 5 -5 113 -9 240 -9 133 0 247 -5 270 -11 57
-16 1285 -22 1430 -8 61 6 184 14 275 18 91 3 170 9 175 12 6 4 62 10 125 13
63 3 119 11 124 16 6 6 50 10 98 10 52 0 88 4 88 10 0 6 27 10 60 10 33 0 77
7 97 15 19 8 60 15 89 15 30 0 54 5 54 10 0 6 26 10 59 10 43 0 60 4 65 15 4
10 20 15 50 15 25 0 48 5 51 10 3 6 26 10 49 10 27 0 48 6 56 15 7 9 29 15 51
15 22 0 39 5 39 10 0 6 18 10 39 10 25 0 41 5 45 15 3 9 18 15 35 15 16 0 33
5 36 10 3 6 20 10 36 10 17 0 32 6 35 15 4 9 19 15 40 15 19 0 34 5 34 10 0 6
11 10 24 10 13 0 29 7 36 15 7 8 23 15 36 15 13 0 24 5 24 10 0 6 11 10 25 10
14 0 28 7 31 15 4 8 17 15 30 15 13 0 24 5 24 10 0 6 9 10 20 10 11 0 23 7 26
15 4 8 17 15 30 15 13 0 24 5 24 10 0 6 9 10 19 10 10 0 21 7 25 15 3 8 15 15
26 15 11 0 20 5 20 10 0 6 6 10 14 10 8 0 16 7 20 15 3 8 15 15 26 15 11 0 20
5 20 10 0 6 6 10 14 10 8 0 16 7 20 15 3 8 11 15 18 15 11 0 29 13 85 60 7 5
15 10 18 10 11 0 215 210 215 222 0 7 12 24 25 37 14 13 25 32 25 42 0 10 5
19 11 19 5 0 19 20 30 45 11 24 24 47 29 50 6 3 10 17 10 31 0 13 5 24 10 24
6 0 10 11 10 25 0 14 7 28 15 31 9 4 15 19 15 40 0 19 5 34 10 34 6 0 10 17
10 39 0 22 6 44 15 51 9 8 15 29 15 56 0 23 5 46 10 49 6 3 10 28 10 55 0 33
5 50 15 54 11 4 15 21 15 65 0 33 5 63 10 66 6 3 10 37 10 75 0 48 5 73 15 84
11 11 15 39 15 110 0 57 4 96 10 96 6 0 10 49 10 128 0 76 4 132 11 139 6 6
12 84 15 189 3 98 10 184 14 189 5 6 11 103 13 216 3 112 9 251 15 309 15 144
15 1976 0 2045 -6 28 -12 120 -15 205 -2 85 -9 159 -14 164 -5 6 -9 44 -9 86
0 52 -5 82 -15 96 -8 10 -15 38 -15 61 0 23 -4 45 -10 48 -5 3 -10 17 -10 29
0 13 -7 29 -15 36 -8 7 -15 23 -15 36 0 13 -4 24 -10 24 -5 0 -10 11 -10 25 0
14 -7 28 -15 31 -8 4 -15 17 -15 30 0 13 -4 24 -10 24 -5 0 -10 11 -10 24 0
13 -7 29 -15 36 -8 7 -15 18 -15 25 0 16 -29 73 -41 80 -5 4 -9 15 -9 26 0 10
-4 19 -10 19 -5 0 -10 9 -10 19 0 10 -7 21 -15 25 -8 3 -15 15 -15 26 0 11 -4
20 -10 20 -5 0 -10 9 -10 20 0 11 -7 23 -15 26 -8 4 -15 12 -15 19 0 17 -33
75 -42 75 -5 0 -8 7 -8 15 0 8 -4 15 -10 15 -5 0 -10 8 -10 19 0 10 -11 27
-25 37 -14 10 -25 22 -25 25 0 11 -129 139 -140 139 -5 0 -10 7 -10 15 0 8 -7
15 -15 15 -8 0 -15 5 -15 10 0 6 -7 10 -14 10 -8 0 -27 11 -42 25 -15 14 -35
25 -45 25 -11 0 -19 7 -19 15 0 9 -9 15 -25 15 -14 0 -25 4 -25 9 0 5 -11 12
-25 15 -14 4 -25 11 -25 16 0 6 -9 10 -19 10 -11 0 -23 5 -26 10 -3 6 -17 10
-31 10 -15 0 -24 6 -24 15 0 9 -9 15 -25 15 -14 0 -25 5 -25 10 0 6 -15 10
-34 10 -21 0 -36 6 -40 15 -3 9 -18 15 -36 15 -16 0 -30 4 -30 9 0 5 -15 11
-32 14 -59 10 -128 31 -128 39 0 5 -18 8 -40 8 -22 0 -40 5 -40 10 0 6 -12 10
-27 10 -16 0 -41 7 -57 15 -15 8 -48 15 -72 15 -23 0 -45 4 -49 9 -3 6 -27 13
-53 16 -26 3 -55 10 -64 16 -10 5 -38 9 -64 9 -25 0 -54 4 -64 10 -10 5 -47
13 -82 16 -35 3 -67 10 -72 15 -6 5 -40 9 -76 9 -36 0 -71 5 -77 11 -6 6 -49
13 -95 16 -45 3 -87 9 -92 14 -6 5 -50 9 -99 9 -49 0 -98 5 -110 12 -23 12
-149 24 -397 36 -80 4 -151 11 -157 15 -7 5 -95 11 -195 14 -101 3 -191 9
-200 14 -9 5 -98 9 -198 9 -122 0 -189 4 -203 12 -16 9 -166 12 -567 14 -300
0 -556 -1 -570 -3z m1125 -203 c3 -5 -3 -18 -14 -29 -22 -22 -43 -24 -471 -40
-357 -13 -630 -30 -664 -41 -16 -6 -62 -10 -102 -10 -40 0 -75 -4 -78 -9 -3
-4 -38 -12 -78 -16 -40 -3 -77 -10 -83 -15 -5 -4 -30 -10 -55 -14 -109 -13
-136 -19 -155 -32 -11 -8 -34 -14 -52 -14 -17 0 -35 -4 -38 -10 -3 -5 -21 -10
-39 -10 -19 0 -39 -7 -46 -15 -7 -8 -25 -15 -41 -15 -15 0 -31 -4 -34 -10 -3
-5 -15 -10 -25 -10 -10 0 -33 -8 -52 -17 -61 -31 -68 -33 -87 -33 -10 0 -21
-7 -25 -15 -3 -8 -12 -15 -21 -15 -8 0 -23 -4 -33 -9 -9 -5 -24 -12 -32 -15
-8 -4 -28 -15 -45 -25 -16 -11 -37 -20 -46 -20 -9 -1 -19 -8 -23 -16 -3 -8
-15 -15 -26 -15 -11 0 -20 -4 -20 -9 0 -5 -8 -11 -17 -15 -24 -7 -66 -35 -98
-63 -7 -7 -18 -13 -24 -13 -6 0 -11 -4 -11 -10 0 -5 -4 -10 -10 -10 -5 0 -18
-8 -29 -17 -10 -10 -35 -31 -57 -48 -49 -39 -200 -190 -239 -239 -16 -22 -38
-47 -47 -57 -10 -11 -18 -23 -18 -29 0 -5 -4 -10 -10 -10 -5 0 -10 -5 -10 -10
0 -6 -6 -18 -13 -26 -37 -44 -55 -72 -63 -96 -4 -10 -10 -18 -15 -18 -5 0 -9
-9 -9 -20 0 -11 -7 -23 -15 -26 -8 -4 -15 -14 -15 -24 0 -11 -4 -22 -10 -25
-5 -3 -10 -15 -10 -26 0 -11 -7 -22 -15 -25 -8 -4 -15 -15 -15 -25 0 -19 -2
-26 -33 -87 -9 -19 -17 -45 -17 -58 0 -28 -22 -53 -65 -74 -58 -29 -59 -33
-74 -260 -10 -143 -8 -133 -21 -125 -6 3 -10 52 -10 110 0 80 -4 110 -17 134
-10 17 -21 31 -25 31 -5 0 -8 11 -8 25 0 14 4 25 9 25 6 0 13 20 17 45 3 25
10 48 15 51 5 3 9 16 9 29 0 13 5 27 10 30 6 3 10 17 10 29 0 13 7 29 15 36 8
7 15 19 15 26 0 8 4 22 9 32 5 9 24 46 41 82 49 100 78 152 87 159 5 3 17 23
26 44 10 20 22 37 27 37 6 0 10 5 10 10 0 10 8 22 37 55 7 7 13 18 13 23 0 6
3 12 8 14 4 2 28 28 52 58 53 65 250 260 262 260 5 0 19 11 32 25 13 14 28 25
34 25 5 0 12 7 16 15 3 8 12 15 21 15 8 0 15 5 15 10 0 6 7 10 15 10 8 0 15 4
15 10 0 5 17 17 38 27 20 9 39 20 42 23 12 13 60 40 74 40 7 0 16 7 20 15 3 8
13 15 23 16 10 0 32 9 48 20 17 10 37 21 45 25 8 3 23 10 32 15 10 5 26 9 37
9 10 0 24 7 31 15 7 8 23 15 36 15 13 0 24 5 24 10 0 6 15 10 34 10 18 0 39 7
46 15 7 8 25 15 41 15 15 0 30 4 33 9 3 5 20 11 38 14 64 11 133 27 153 36 11
6 40 12 65 15 25 2 86 12 135 21 165 30 526 62 850 75 121 6 299 14 395 18
258 13 338 13 345 2z m-310 -396 c26 -11 -3 -24 -52 -24 -23 0 -45 -4 -48 -10
-3 -5 -23 -10 -43 -10 -21 0 -46 -6 -57 -14 -11 -7 -54 -16 -95 -20 -41 -4
-106 -11 -145 -14 -38 -4 -76 -11 -84 -16 -7 -5 -41 -13 -75 -17 -117 -16
-164 -25 -178 -36 -7 -6 -30 -13 -50 -17 -21 -3 -55 -9 -75 -12 -21 -4 -47
-13 -58 -20 -11 -8 -34 -14 -51 -14 -29 0 -33 4 -46 45 -17 50 -15 55 21 55
14 0 35 7 45 15 11 8 34 15 52 15 18 0 36 5 39 10 3 6 21 10 38 10 18 1 43 7
57 15 14 8 42 14 63 15 20 0 37 5 37 10 0 6 21 10 48 10 26 1 58 7 72 15 20
11 80 14 297 15 149 0 279 -3 288 -6z m1656 -323 c16 -16 29 -34 29 -40 0 -6
5 -11 10 -11 6 0 10 -4 10 -10 0 -15 -34 -12 -66 5 -16 8 -39 15 -51 15 -12 0
-25 5 -28 10 -3 6 -21 10 -39 10 -19 0 -39 7 -46 15 -7 8 -24 15 -39 15 -20 0
-23 2 -11 10 8 5 57 10 108 10 90 0 95 -1 123 -29z m679 -63 c0 -5 11 -8 24
-8 14 0 27 -4 31 -9 3 -5 19 -12 35 -16 17 -4 30 -10 30 -15 0 -4 8 -10 18
-14 18 -6 53 -27 62 -37 3 -3 20 -14 38 -24 17 -11 32 -23 32 -27 0 -4 6 -8
13 -8 8 0 20 -11 27 -25 7 -14 19 -25 25 -25 6 0 18 -11 25 -25 7 -14 18 -25
25 -25 6 0 17 -16 24 -35 7 -19 16 -35 21 -35 11 0 90 -161 90 -183 0 -9 4
-18 9 -21 5 -3 11 -18 14 -32 4 -22 -4 -36 -44 -75 -27 -27 -49 -55 -49 -63 0
-38 -29 -19 -140 93 -66 67 -125 121 -130 121 -6 0 -10 7 -10 15 0 8 -6 15
-12 15 -7 0 -29 14 -48 31 -19 17 -46 41 -60 53 -32 27 -50 67 -50 111 0 19
-4 37 -10 40 -5 3 -10 16 -10 28 0 12 -7 35 -15 51 -8 15 -15 36 -15 45 0 10
-9 36 -20 59 -31 64 -28 70 25 58 25 -6 45 -14 45 -18z m1317 -266 c40 -40 73
-77 73 -82 0 -6 7 -10 15 -10 8 0 15 -7 15 -15 0 -8 5 -15 10 -15 6 0 10 -8
10 -19 0 -10 7 -24 15 -31 8 -7 15 -18 15 -25 0 -8 3 -15 8 -17 4 -1 14 -17
24 -33 14 -26 14 -33 2 -49 -18 -26 -18 -93 2 -168 16 -64 16 -127 -1 -131 -5
-1 -11 17 -13 41 -2 23 -7 42 -13 42 -5 0 -9 15 -9 34 0 18 -7 39 -15 46 -8 7
-15 25 -15 41 0 15 -4 31 -10 34 -5 3 -10 17 -10 29 0 13 -7 29 -15 36 -8 7
-15 23 -15 36 0 13 -4 24 -10 24 -5 0 -10 8 -10 19 0 10 -7 24 -15 31 -8 7
-15 18 -15 26 0 17 -50 108 -62 112 -4 2 -8 12 -8 23 0 11 -11 32 -25 47 -14
15 -25 35 -25 44 0 10 -4 18 -10 18 -5 0 -10 5 -10 12 0 14 22 -5 117 -100z
m-5427 1 c-1 -14 -27 -43 -39 -43 -6 0 -11 -5 -11 -10 0 -6 -9 -21 -21 -33
-18 -19 -43 -48 -121 -140 -10 -11 -18 -23 -18 -27 0 -3 -8 -15 -17 -26 -24
-27 -42 -55 -49 -76 -4 -10 -10 -18 -15 -18 -5 0 -9 -9 -9 -20 0 -11 -3 -20
-8 -20 -4 0 -16 -17 -26 -37 -10 -21 -27 -54 -38 -73 -10 -19 -24 -47 -29 -62
-6 -16 -15 -28 -20 -28 -5 0 -9 -6 -9 -14 0 -8 -4 -16 -9 -18 -12 -5 -61 -86
-61 -102 0 -8 -3 -16 -7 -18 -13 -5 -43 -69 -43 -91 0 -12 -7 -31 -15 -41 -8
-11 -15 -32 -15 -47 0 -15 -4 -31 -10 -34 -5 -3 -10 -37 -10 -74 0 -42 -6 -80
-15 -97 -8 -16 -15 -37 -15 -46 0 -10 -4 -18 -10 -18 -5 0 -10 -11 -10 -25 0
-14 -4 -25 -9 -25 -5 0 -12 -18 -16 -40 -4 -22 -11 -40 -16 -40 -5 0 -9 -16
-9 -35 0 -19 -4 -35 -9 -35 -5 0 -12 -18 -16 -40 -4 -22 -11 -42 -16 -46 -5
-3 -9 -14 -9 -25 0 -10 -4 -19 -10 -19 -5 0 -10 -10 -10 -22 0 -13 -4 -30 -9
-37 -20 -32 -24 43 -8 129 10 48 17 114 17 146 0 33 4 64 9 69 5 6 11 35 14
65 5 64 24 147 37 172 6 10 10 31 10 47 0 17 4 32 9 36 6 3 13 26 17 50 3 25
10 45 14 45 4 0 10 12 13 28 9 43 31 102 39 102 5 0 8 11 8 24 0 13 3 26 8 28
4 2 15 21 26 43 10 22 22 47 27 55 5 8 12 23 15 33 4 9 10 17 15 17 5 0 9 6 9
14 0 17 80 136 92 136 4 0 8 7 8 15 0 18 233 255 250 255 6 0 21 10 33 23 25
25 54 45 80 53 9 4 17 10 17 15 0 5 5 9 10 9 6 0 10 -3 10 -7z m1348 -400 c2
-7 -3 -13 -11 -13 -9 0 -22 -6 -29 -12 -21 -20 -56 -38 -73 -38 -8 0 -15 -4
-15 -10 0 -5 -16 -16 -35 -25 -19 -9 -39 -23 -46 -31 -15 -18 -39 -18 -39 1 0
8 5 15 10 15 6 0 10 5 10 11 0 6 11 25 25 43 14 18 25 40 25 49 0 11 12 17 43
20 74 7 130 3 135 -10z m1946 -139 c14 -5 16 -43 16 -324 0 -206 -4 -321 -10
-325 -6 -4 -109 -6 -229 -5 -141 0 -222 -3 -226 -10 -3 -5 -28 -10 -56 -10
-27 0 -49 -4 -49 -10 0 -5 -6 -10 -14 -10 -8 0 -21 -6 -28 -13 -7 -7 -21 -16
-31 -20 -9 -4 -20 -14 -24 -22 -3 -9 -14 -26 -25 -38 -46 -51 -51 -88 -55
-366 -3 -145 -2 -274 1 -287 l6 -24 348 -2 347 -3 -3 -100 c-2 -55 -8 -101
-13 -103 -5 -2 -9 -39 -9 -82 0 -43 -5 -91 -11 -107 -6 -15 -15 -68 -20 -118
-4 -49 -12 -112 -16 -140 l-8 -50 -305 -3 c-228 -2 -306 -5 -312 -15 -4 -6 -8
-420 -8 -920 l0 -907 -362 2 -363 3 -5 915 c-3 503 -6 916 -8 918 -1 1 -141 2
-312 2 l-310 0 0 355 0 355 304 0 c231 0 306 3 314 13 6 7 11 156 14 377 4
314 7 370 21 397 10 18 17 50 17 72 0 22 5 43 10 46 6 3 10 19 10 34 0 16 7
34 15 41 8 7 15 18 15 25 0 26 34 83 90 152 6 7 10 15 10 18 0 6 78 85 85 85
3 0 14 8 24 18 40 37 69 58 102 74 19 10 41 22 49 27 20 12 60 28 88 36 12 4
22 11 22 16 0 5 17 9 38 9 21 0 42 4 48 9 5 6 32 12 59 14 86 6 743 7 759 1z
m1923 -411 c-3 -10 -5 -4 -5 12 0 17 2 24 5 18 2 -7 2 -21 0 -30z m-1108 -459
c14 -27 32 -55 39 -62 6 -7 12 -20 12 -28 0 -8 5 -14 10 -14 6 0 10 -11 10
-25 0 -14 4 -25 9 -25 9 0 41 -77 41 -102 0 -8 6 -21 14 -27 8 -6 16 -26 19
-44 16 -88 20 -104 33 -134 8 -17 14 -50 14 -73 0 -24 5 -71 12 -106 6 -35 8
-67 5 -71 -9 -8 -31 20 -54 67 -9 19 -22 40 -29 45 -6 6 -18 25 -25 43 -8 17
-19 32 -25 32 -7 0 -19 16 -28 35 -9 19 -21 35 -26 35 -6 0 -10 6 -10 13 0 7
-9 19 -20 27 -11 8 -20 20 -20 27 0 7 -5 13 -11 13 -6 0 -24 15 -40 33 -29 32
-37 75 -19 93 5 5 13 66 16 134 10 185 24 207 73 114z m1620 -1044 c-1 -100
-7 -139 -20 -118 -10 16 -12 176 -2 233 l7 40 8 -35 c4 -19 7 -73 7 -120z
m-29 -490 c0 -87 -4 -140 -10 -140 -6 0 -10 53 -10 140 0 87 4 140 10 140 6 0
10 -53 10 -140z m-5910 -244 c6 -16 10 -43 10 -61 0 -17 3 -35 7 -39 5 -4 13
-29 20 -54 6 -26 14 -57 18 -69 6 -17 3 -23 -9 -23 -9 0 -16 5 -16 11 0 6 -16
26 -35 45 -25 24 -35 42 -35 64 0 16 -5 30 -11 30 -8 0 -10 18 -6 58 3 31 9
89 12 127 10 104 17 110 27 20 5 -44 13 -93 18 -109z m5439 -439 c-1 -224 -13
-286 -22 -117 -12 208 -7 327 14 314 5 -3 9 -92 8 -197z m-785 -45 c-8 -2 -14
-14 -14 -28 0 -13 -4 -24 -10 -24 -5 0 -10 -8 -10 -19 0 -10 -7 -24 -15 -31
-8 -7 -15 -20 -16 -29 0 -9 -9 -29 -20 -46 -10 -16 -27 -46 -36 -65 -10 -19
-24 -39 -30 -43 -7 -4 -13 -17 -13 -27 0 -11 -4 -20 -10 -20 -5 0 -10 -6 -10
-14 0 -8 -3 -16 -7 -18 -9 -4 -73 -96 -73 -105 0 -3 -10 -15 -22 -27 -13 -12
-30 -34 -38 -48 -15 -25 -94 -120 -137 -166 -13 -12 -23 -25 -23 -27 0 -6 -90
-95 -96 -95 -3 0 -15 -10 -28 -22 -13 -13 -42 -39 -66 -58 -23 -19 -53 -45
-67 -57 -13 -13 -28 -23 -33 -23 -5 0 -21 -12 -37 -27 -33 -32 -60 -51 -85
-59 -10 -4 -18 -10 -18 -15 0 -5 -5 -9 -11 -9 -6 0 -25 -11 -43 -25 -18 -14
-40 -25 -48 -25 -9 0 -18 -7 -22 -15 -3 -8 -15 -15 -26 -15 -11 0 -20 -4 -20
-10 0 -5 -6 -10 -14 -10 -17 0 -80 -32 -84 -42 -2 -5 -10 -8 -17 -8 -8 0 -35
-11 -61 -25 -26 -14 -58 -25 -70 -25 -13 0 -24 -4 -24 -10 0 -5 -8 -10 -18
-10 -10 0 -26 -6 -37 -14 -11 -7 -33 -16 -50 -19 -61 -11 -120 -28 -129 -38
-13 -12 -96 -12 -96 1 0 6 7 10 15 10 15 0 58 18 138 56 27 13 55 24 63 24 8
0 14 4 14 8 0 9 70 42 88 42 7 0 12 4 12 9 0 5 10 13 23 17 12 4 24 10 27 13
3 4 21 15 40 24 37 19 72 39 80 47 10 10 45 31 63 36 9 4 17 10 17 15 0 5 4 9
10 9 8 0 96 56 110 70 13 13 79 60 85 60 3 0 22 16 42 35 20 19 39 35 43 35 4
0 20 11 36 25 16 14 32 25 37 25 4 0 7 7 7 15 0 8 5 15 11 15 7 0 19 8 28 18
9 10 30 28 46 41 40 30 245 231 245 239 0 4 20 28 45 54 25 27 45 52 45 58 0
5 7 10 15 10 8 0 15 5 15 10 0 6 11 23 25 38 14 15 25 31 25 36 0 5 10 18 23
30 29 26 127 162 127 176 0 5 5 10 10 10 6 0 10 7 10 15 0 7 6 18 13 22 7 4
21 25 32 46 16 30 21 34 26 20 4 -11 1 -19 -7 -21z m-5662 -230 c14 -223 25
-337 37 -365 6 -16 11 -50 11 -77 0 -27 5 -52 10 -55 6 -3 10 -26 10 -49 0
-24 7 -60 15 -79 8 -20 15 -50 15 -66 0 -16 5 -33 10 -36 6 -3 10 -21 10 -39
0 -18 7 -41 15 -52 8 -10 15 -31 15 -46 0 -15 5 -30 10 -33 6 -3 10 -15 10
-26 0 -11 7 -27 15 -35 8 -9 15 -24 15 -34 0 -10 5 -22 10 -25 6 -3 10 -15 10
-26 0 -11 7 -22 15 -25 8 -4 15 -17 15 -30 0 -13 4 -24 9 -24 5 0 12 -11 15
-25 4 -14 11 -25 16 -25 6 0 10 -8 10 -19 0 -10 11 -30 24 -44 13 -14 30 -39
37 -56 8 -17 20 -31 26 -31 7 0 13 -6 13 -14 0 -7 11 -25 25 -40 14 -15 25
-29 25 -32 0 -10 174 -178 220 -214 25 -19 47 -38 48 -42 2 -5 10 -8 18 -8 8
0 14 -3 14 -8 0 -4 16 -16 35 -26 19 -11 35 -22 35 -26 0 -5 11 -11 25 -14 14
-4 25 -11 25 -16 0 -6 5 -10 12 -10 18 0 88 -33 88 -42 0 -4 9 -8 20 -8 11 0
20 -4 20 -10 0 -5 9 -10 19 -10 11 0 26 -7 35 -15 8 -8 24 -15 35 -15 12 0 21
-4 21 -10 0 -5 10 -10 23 -10 13 0 32 -7 43 -15 10 -8 29 -15 41 -15 12 0 25
-4 28 -10 3 -5 19 -10 35 -10 16 0 35 -7 44 -15 8 -8 31 -15 50 -15 20 0 36
-4 36 -10 0 -5 17 -10 38 -10 20 -1 48 -7 62 -15 14 -8 44 -14 67 -15 23 0 45
-5 48 -10 3 -6 32 -10 63 -11 31 0 66 -4 77 -9 40 -16 -11 -21 -161 -15 -167
7 -391 9 -430 5 -15 -1 -29 1 -33 6 -9 13 -49 34 -65 34 -8 0 -16 7 -20 15 -3
8 -15 15 -26 15 -11 0 -20 5 -20 10 0 6 -9 10 -20 10 -11 0 -23 7 -26 15 -4 8
-12 15 -20 15 -16 0 -51 18 -72 37 -7 7 -20 13 -28 13 -8 0 -14 5 -14 10 0 6
-6 10 -14 10 -7 0 -19 6 -25 14 -7 8 -27 22 -46 31 -19 9 -35 20 -35 25 0 6
-7 10 -15 10 -8 0 -15 4 -15 9 0 5 -9 12 -19 16 -11 3 -41 26 -67 51 -26 24
-49 44 -51 44 -12 0 -83 73 -83 85 0 3 -16 21 -35 39 -19 19 -35 38 -35 44 0
5 -7 12 -15 16 -8 3 -15 12 -15 21 0 8 -4 15 -10 15 -5 0 -10 7 -10 15 0 8 -4
15 -10 15 -5 0 -16 16 -25 35 -9 19 -23 39 -31 46 -8 6 -14 18 -14 25 0 8 -4
14 -10 14 -5 0 -10 6 -10 14 0 8 -6 21 -12 28 -12 12 -27 40 -42 78 -4 8 -15
29 -25 45 -11 17 -20 40 -20 51 -1 12 -8 27 -16 34 -8 7 -15 23 -15 36 0 12
-4 26 -10 29 -5 3 -10 17 -10 29 0 13 -7 29 -15 36 -8 7 -15 25 -15 41 0 15
-4 31 -10 34 -5 3 -10 21 -10 39 0 19 -7 39 -15 46 -9 8 -15 29 -15 56 0 23
-4 46 -10 49 -5 3 -10 26 -10 49 0 24 -7 60 -15 80 -13 31 -15 88 -14 333 0
163 3 303 6 310 11 29 18 -3 25 -115z m318 -212 c0 -5 -4 -10 -10 -10 -5 0
-10 5 -10 10 0 6 5 10 10 10 6 0 10 -4 10 -10z m28 -63 c2 -15 8 -27 13 -27 5
0 9 -9 9 -21 0 -11 6 -33 14 -47 7 -15 18 -38 24 -52 27 -65 95 -200 103 -206
5 -3 9 -14 9 -24 0 -10 5 -20 12 -22 6 -2 13 -31 15 -64 2 -32 8 -68 13 -79 5
-11 11 -69 14 -130 3 -60 8 -128 12 -150 6 -39 6 -40 -12 -20 -11 11 -35 52
-54 90 -19 39 -38 72 -42 73 -5 2 -8 15 -8 28 0 13 -4 24 -10 24 -5 0 -10 13
-10 29 0 16 -7 36 -15 45 -8 8 -15 28 -15 45 0 17 -4 31 -10 31 -5 0 -10 17
-10 38 0 21 -7 47 -15 58 -8 10 -15 38 -15 61 0 23 -4 45 -10 48 -5 3 -10 30
-10 58 0 29 -7 65 -15 81 -19 36 -21 170 -2 164 6 -3 13 -17 15 -31z m1978
-362 c10 -8 40 -15 66 -15 26 0 50 -4 53 -10 3 -5 19 -10 36 -10 16 0 29 -4
29 -8 0 -10 87 -72 100 -72 6 0 10 -4 10 -10 0 -5 9 -10 20 -10 11 0 20 -7 20
-15 0 -9 9 -15 25 -15 14 0 25 -4 25 -9 0 -5 11 -12 25 -15 14 -4 25 -11 25
-16 0 -6 11 -10 25 -10 14 0 25 -4 25 -10 0 -5 11 -10 24 -10 13 0 26 -7 30
-15 3 -9 18 -15 36 -15 16 0 30 -4 30 -10 0 -6 -35 -10 -85 -10 -50 0 -85 4
-85 10 0 6 -31 10 -72 10 -93 0 -181 27 -225 69 -18 17 -36 31 -40 31 -5 0
-20 11 -35 25 -15 14 -32 25 -38 25 -5 0 -10 6 -10 13 0 8 -11 20 -25 27 -14
7 -25 19 -25 25 0 6 -11 18 -25 25 -14 7 -25 19 -25 27 0 18 61 17 86 -2z
m3574 -109 c0 -13 -7 -37 -15 -52 -8 -16 -15 -39 -15 -51 0 -13 -4 -23 -10
-23 -5 0 -10 -11 -10 -25 0 -14 -3 -25 -8 -25 -4 0 -16 -16 -26 -35 -11 -19
-23 -35 -28 -35 -4 0 -8 -7 -8 -15 0 -8 -6 -15 -13 -15 -8 0 -20 -11 -27 -25
-7 -14 -19 -25 -27 -25 -7 0 -13 -4 -13 -10 0 -5 -11 -12 -25 -16 -14 -3 -25
-10 -25 -14 0 -11 -39 -20 -45 -9 -3 4 12 26 35 49 22 22 40 44 40 48 0 5 16
26 35 48 19 21 35 45 35 52 0 7 7 15 15 18 8 4 15 12 15 20 0 8 4 14 9 14 5 0
12 8 15 18 4 10 14 27 24 38 23 27 41 56 48 77 9 25 24 21 24 -7z m771 -475
c-3 -66 -7 -87 -25 -107 -38 -46 -112 -118 -156 -154 -24 -19 -48 -40 -54 -45
-6 -6 -38 -31 -71 -55 -33 -25 -62 -48 -65 -51 -3 -4 -15 -9 -27 -13 -13 -4
-23 -12 -23 -17 0 -5 -7 -9 -16 -9 -8 0 -30 -11 -48 -25 -18 -14 -40 -25 -49
-25 -10 0 -17 -4 -17 -10 0 -5 -9 -10 -20 -10 -11 0 -20 5 -20 10 0 6 7 10 16
10 9 0 27 11 40 25 13 14 25 25 28 25 7 0 51 37 88 73 15 15 32 27 38 27 5 0
10 3 10 8 0 4 23 31 50 59 28 28 50 55 50 58 0 8 18 28 123 137 42 44 77 85
77 90 0 5 11 19 25 32 14 13 25 31 25 40 0 10 6 16 13 13 9 -3 11 -27 8 -86z
m-2714 33 c-3 -3 -12 -4 -19 -1 -8 3 -5 6 6 6 11 1 17 -2 13 -5z m-1792 -44
c3 -5 -3 -10 -15 -10 -12 0 -18 5 -15 10 3 6 10 10 15 10 5 0 12 -4 15 -10z
m-1090 -85 c22 -19 51 -40 65 -47 14 -7 34 -21 46 -31 21 -18 75 -49 154 -89
25 -13 47 -26 48 -30 2 -5 14 -8 27 -8 13 0 25 -3 27 -7 4 -11 67 -43 84 -43
8 0 14 -4 14 -8 0 -5 17 -17 38 -28 20 -10 39 -22 42 -25 11 -14 57 -21 121
-21 38 1 71 -3 74 -9 4 -5 24 -9 46 -9 21 0 47 -4 57 -9 17 -10 109 -26 227
-40 33 -4 67 -11 75 -14 36 -15 329 -43 580 -56 91 -5 203 -14 250 -19 111
-14 1626 -14 1735 -1 44 6 152 12 240 15 88 3 169 9 180 14 11 5 56 11 100 14
99 5 238 26 245 36 3 4 30 10 60 13 30 3 70 9 88 12 21 5 32 3 32 -4 0 -6 -11
-11 -25 -11 -14 0 -25 -4 -25 -9 0 -5 -10 -11 -22 -14 -29 -6 -87 -27 -110
-38 -10 -5 -33 -9 -51 -9 -18 0 -38 -5 -45 -12 -11 -11 -58 -21 -172 -36 -30
-4 -62 -12 -70 -17 -18 -12 -117 -22 -355 -35 -99 -5 -199 -14 -221 -20 -56
-13 -1368 -14 -1394 0 -10 5 -151 14 -314 19 -162 5 -299 12 -304 15 -5 3 -69
6 -142 7 -74 0 -145 5 -159 11 -14 5 -100 14 -191 19 -259 15 -354 23 -368 32
-6 5 -42 12 -80 17 -116 16 -175 28 -237 49 -33 11 -67 21 -76 21 -15 0 -59
18 -101 41 -10 5 -22 9 -28 9 -24 0 -262 125 -268 141 -2 5 -9 9 -15 9 -7 0
-24 11 -39 25 -15 14 -30 25 -33 25 -3 0 -15 9 -27 20 -25 23 -14 44 29 55 39
9 83 59 83 93 0 16 3 31 6 35 11 10 59 -13 99 -48z m895 -765 c0 -6 -28 -10
-65 -10 -37 0 -65 4 -65 10 0 6 28 10 65 10 37 0 65 -4 65 -10z m2890 0 c0 -6
-33 -10 -79 -10 -44 0 -92 -5 -108 -12 -27 -11 -83 -16 -473 -37 -96 -5 -187
-14 -202 -20 -39 -15 -1337 -15 -1375 0 -15 6 -90 14 -166 18 -295 13 -104 22
538 25 462 1 678 5 695 13 17 7 152 12 380 14 195 2 375 7 400 10 77 11 390
10 390 -1z m-2573 -16 c46 -13 9 -24 -76 -24 -106 0 -166 9 -136 21 24 9 181
11 212 3z"/>
</g>
</svg>
