<?xml version="1.0" standalone="no"?>
<!DOCTYPE svg PUBLIC "-//W3C//DTD SVG 20010904//EN"
 "http://www.w3.org/TR/2001/REC-SVG-20010904/DTD/svg10.dtd">
<svg version="1.0" xmlns="http://www.w3.org/2000/svg"
 width="1052.000000pt" height="773.000000pt" viewBox="0 0 1052.000000 773.000000"
 preserveAspectRatio="xMidYMid meet">

<g transform="translate(0.000000,773.000000) scale(0.100000,-0.100000)"
fill="#000000" stroke="none">
<path d="M3970 7675 c-10 -11 -36 -15 -111 -15 -59 0 -99 -4 -99 -10 0 -6 -32
-10 -75 -10 -58 0 -77 -4 -81 -15 -5 -11 -22 -15 -65 -15 -33 0 -59 -4 -59
-10 0 -5 -22 -10 -49 -10 -31 0 -53 -5 -61 -15 -8 -9 -29 -15 -56 -15 -23 0
-46 -4 -49 -10 -3 -5 -23 -10 -45 -10 -24 0 -40 -5 -44 -15 -3 -9 -18 -15 -40
-15 -19 0 -38 -4 -41 -10 -3 -5 -22 -10 -41 -10 -22 0 -37 -6 -40 -15 -4 -8
-19 -15 -34 -15 -16 0 -32 -4 -35 -10 -3 -5 -19 -10 -35 -10 -15 0 -30 -7 -34
-15 -3 -9 -18 -15 -40 -15 -19 0 -36 -3 -38 -7 -6 -14 -69 -43 -94 -43 -13 0
-24 -4 -24 -10 0 -5 -11 -12 -25 -16 -14 -3 -25 -10 -25 -15 0 -5 -9 -9 -20
-9 -11 0 -38 -11 -60 -25 -22 -14 -46 -25 -55 -25 -8 0 -15 -4 -15 -9 0 -5
-12 -14 -27 -20 -47 -18 -103 -52 -103 -62 0 -5 -9 -9 -20 -9 -12 0 -31 -11
-44 -25 -13 -14 -29 -25 -36 -25 -7 0 -23 -11 -36 -25 -13 -14 -26 -25 -29
-25 -4 0 -13 -6 -20 -12 -30 -27 -44 -38 -49 -38 -11 0 -216 -209 -216 -219 0
-6 -6 -11 -13 -11 -7 0 -19 -16 -27 -35 -8 -19 -20 -35 -27 -35 -7 0 -13 -7
-13 -15 0 -8 -4 -15 -10 -15 -5 0 -10 -8 -10 -17 0 -10 -12 -29 -25 -42 -14
-13 -25 -31 -25 -41 0 -10 -7 -20 -15 -24 -8 -3 -15 -15 -15 -26 0 -11 -4 -20
-10 -20 -5 0 -10 -11 -10 -25 0 -14 -7 -28 -15 -31 -8 -4 -15 -19 -15 -34 0
-16 -5 -32 -10 -35 -6 -3 -10 -19 -10 -34 0 -16 -7 -34 -15 -41 -8 -7 -15 -27
-15 -46 0 -18 -4 -36 -10 -39 -5 -3 -10 -33 -10 -65 0 -38 -5 -64 -14 -73 -11
-10 -16 -49 -20 -138 -2 -68 -12 -214 -22 -324 -15 -179 -17 -389 -17 -1975
-1 -1799 1 -1890 34 -1890 5 0 9 -7 9 -15 0 -8 7 -15 15 -15 9 0 15 -9 15 -25
0 -14 5 -25 10 -25 6 0 10 -16 10 -35 0 -22 6 -38 15 -41 9 -4 15 -19 15 -40
0 -19 5 -34 10 -34 6 0 10 -16 10 -36 0 -19 7 -42 15 -50 8 -9 15 -26 15 -39
0 -13 5 -27 10 -30 6 -3 10 -19 10 -35 0 -15 7 -30 15 -34 8 -3 15 -17 15 -31
0 -14 5 -25 10 -25 6 0 10 -10 10 -22 0 -12 6 -29 13 -37 8 -9 20 -32 27 -51
8 -19 20 -41 27 -48 7 -7 13 -20 13 -28 0 -8 5 -14 10 -14 6 0 10 -11 10 -25
0 -14 6 -25 13 -25 7 0 20 -18 30 -40 9 -22 21 -40 25 -40 5 0 17 -16 28 -35
10 -19 22 -35 26 -35 5 0 8 -7 8 -15 0 -8 4 -15 9 -15 4 0 20 -17 33 -37 32
-48 266 -283 281 -283 7 0 28 -15 47 -34 20 -18 46 -36 58 -40 12 -4 22 -12
22 -17 0 -5 7 -9 15 -9 8 0 15 -4 15 -9 0 -5 11 -12 25 -15 14 -4 25 -11 25
-16 0 -6 9 -10 19 -10 10 0 21 -7 25 -15 3 -8 17 -15 31 -15 14 0 25 -4 25
-10 0 -5 9 -10 21 -10 11 0 27 -7 35 -15 9 -8 26 -15 39 -15 13 0 27 -4 30
-10 3 -5 25 -10 48 -10 23 0 51 -7 61 -15 12 -9 42 -15 77 -15 32 0 61 -4 64
-10 3 -5 37 -10 75 -10 51 0 69 -4 74 -15 4 -11 22 -15 75 -15 38 0 73 -5 76
-10 3 -5 41 -10 84 -10 48 0 82 -5 89 -13 14 -13 117 -23 367 -35 83 -4 157
-11 165 -17 22 -14 552 -26 1215 -27 652 0 1049 11 1082 30 14 8 63 12 137 12
66 0 117 4 121 10 3 5 46 10 95 10 65 0 92 4 104 15 10 10 36 15 85 15 38 0
73 5 76 10 3 6 37 10 75 10 51 0 69 4 74 15 4 11 21 15 66 15 33 0 60 4 60 10
0 6 22 10 49 10 28 0 51 5 53 12 4 10 43 19 153 35 22 3 44 12 48 19 5 9 25
14 52 14 25 0 45 5 45 10 0 6 15 10 34 10 21 0 36 6 40 15 3 9 19 15 41 15 19
0 35 4 35 9 0 5 18 12 40 16 22 4 40 11 40 16 0 5 11 9 25 9 14 0 25 4 25 9 0
5 16 12 35 15 19 4 35 11 35 16 0 6 11 10 24 10 13 0 26 3 28 8 5 12 68 42 89
42 10 0 19 4 19 9 0 5 11 12 25 15 14 4 25 11 25 16 0 6 6 10 14 10 18 0 76
32 76 43 0 4 7 7 15 7 8 0 15 4 15 9 0 5 11 12 25 15 14 4 25 11 25 16 0 6 5
10 11 10 10 0 69 41 97 68 7 6 18 12 23 12 16 0 236 226 244 249 3 12 11 21
16 21 5 0 9 7 9 15 0 8 7 15 15 15 8 0 15 9 15 19 0 10 11 29 25 42 13 13 25
32 25 42 0 9 5 17 10 17 6 0 10 11 10 24 0 13 7 26 15 30 9 3 15 18 15 35 0
16 5 33 10 36 6 3 10 19 10 34 0 16 7 34 15 41 8 7 15 27 15 46 0 18 5 36 10
39 6 3 10 25 10 49 0 23 7 51 15 62 8 10 15 40 15 67 0 26 5 47 10 47 6 0 10
26 10 58 0 36 6 66 15 78 9 12 14 43 15 86 0 37 4 70 10 73 5 3 10 45 10 93 1
57 6 96 15 112 10 18 14 61 15 152 0 73 4 129 10 133 6 4 10 74 10 177 0 129
4 178 15 201 10 23 16 82 18 217 3 102 9 219 15 260 17 114 11 2145 -5 2162
-9 8 -13 55 -13 161 0 119 -3 151 -15 163 -11 11 -15 38 -15 94 0 43 -4 82
-10 85 -5 3 -10 26 -10 49 0 27 -6 48 -15 56 -8 7 -15 28 -15 46 0 19 -4 34
-10 34 -5 0 -10 11 -10 24 0 13 -7 29 -15 36 -8 7 -15 23 -15 36 0 12 -4 26
-10 29 -5 3 -10 15 -10 26 0 11 -7 22 -15 25 -8 4 -15 17 -15 30 0 13 -4 24
-10 24 -5 0 -10 11 -10 25 0 16 -6 25 -15 25 -9 0 -15 9 -15 25 0 14 -4 25
-10 25 -5 0 -10 11 -10 25 0 16 -6 25 -15 25 -8 0 -15 7 -15 15 0 17 -18 52
-37 73 -7 7 -13 20 -13 28 0 8 -4 14 -10 14 -5 0 -10 11 -10 25 0 16 -6 25
-15 25 -8 0 -15 8 -15 18 0 10 -11 29 -25 42 -14 13 -25 30 -25 37 0 8 -11 24
-25 37 -14 13 -25 27 -25 32 0 7 -47 54 -154 152 -19 17 -41 32 -47 32 -6 0
-22 11 -35 25 -13 14 -30 25 -38 25 -8 0 -27 11 -42 25 -15 14 -35 25 -45 25
-11 0 -19 4 -19 9 0 5 -11 12 -25 15 -14 4 -25 11 -25 16 0 6 -10 10 -22 10
-13 0 -32 7 -42 15 -11 8 -28 15 -38 15 -10 0 -18 5 -18 10 0 6 -8 10 -19 10
-10 0 -32 7 -47 15 -16 8 -37 15 -46 15 -10 0 -18 5 -18 10 0 6 -16 10 -35 10
-19 0 -35 4 -35 9 0 5 -18 12 -40 16 -22 4 -42 11 -46 16 -3 5 -23 9 -44 9
-21 0 -41 4 -45 9 -3 6 -26 13 -50 17 -25 3 -48 10 -51 15 -3 5 -25 9 -50 9
-30 0 -46 5 -50 15 -5 11 -21 15 -59 15 -30 0 -57 5 -60 10 -3 6 -30 10 -60
10 -34 0 -59 5 -69 15 -10 10 -35 15 -75 15 -34 0 -61 4 -61 10 0 6 -30 10
-71 10 -49 0 -75 4 -85 15 -11 11 -38 15 -94 15 -43 0 -82 5 -85 10 -3 6 -48
10 -99 10 -69 0 -97 4 -106 14 -8 11 -44 16 -128 20 -288 13 -398 22 -412 31
-14 9 -99 14 -600 32 -138 6 -223 13 -237 21 -16 9 -165 12 -621 12 -521 0
-601 -2 -612 -15z m1194 -193 c3 -5 -3 -15 -13 -24 -13 -11 -54 -17 -147 -22
-71 -4 -136 -12 -146 -17 -9 -5 -113 -9 -230 -9 -117 0 -267 -4 -333 -10 -393
-34 -582 -57 -649 -80 -16 -6 -44 -10 -63 -10 -18 0 -41 -4 -51 -10 -17 -9
-86 -26 -147 -36 -16 -3 -39 -9 -50 -14 -55 -22 -113 -40 -133 -40 -12 0 -22
-4 -22 -10 0 -5 -8 -10 -18 -10 -10 0 -27 -7 -38 -15 -10 -8 -29 -15 -41 -15
-12 0 -25 -4 -28 -10 -3 -5 -14 -10 -24 -10 -10 0 -24 -7 -31 -15 -7 -8 -21
-15 -31 -15 -11 0 -36 -10 -57 -23 -20 -13 -51 -29 -69 -36 -18 -7 -38 -19
-44 -27 -6 -8 -20 -14 -30 -14 -11 0 -19 -3 -19 -8 0 -4 -16 -16 -35 -26 -19
-11 -35 -22 -35 -26 0 -5 -11 -11 -25 -14 -14 -4 -25 -11 -25 -16 0 -6 -6 -10
-14 -10 -8 0 -16 -3 -18 -8 -1 -4 -23 -23 -48 -42 -25 -19 -82 -72 -127 -117
-46 -46 -87 -83 -93 -83 -5 0 -10 -5 -10 -11 0 -6 -15 -25 -32 -43 -18 -17
-53 -58 -77 -91 -25 -33 -48 -61 -53 -63 -4 -2 -8 -8 -8 -14 0 -5 -10 -24 -23
-41 -13 -18 -32 -50 -43 -72 -10 -22 -21 -42 -24 -45 -11 -11 -40 -73 -40 -86
0 -8 -4 -14 -10 -14 -5 0 -10 -11 -10 -25 0 -14 -4 -25 -10 -25 -5 0 -12 -16
-16 -35 -3 -19 -10 -38 -15 -41 -5 -3 -9 -14 -9 -25 0 -30 -28 -79 -45 -79 -9
0 -30 -10 -48 -22 l-33 -21 -12 -165 c-7 -90 -15 -169 -19 -175 -12 -20 -22
28 -22 119 -1 90 -15 144 -38 144 -17 0 -16 22 2 46 8 10 15 33 15 51 0 17 5
35 10 38 6 3 10 19 10 36 0 16 4 29 10 29 5 0 12 12 16 28 3 15 9 36 14 47 4
11 11 27 14 35 3 8 10 22 15 30 5 8 22 42 37 75 16 33 32 62 37 63 4 2 7 12 7
23 0 11 7 22 15 25 8 4 15 15 15 25 0 10 3 19 8 19 4 0 16 17 27 38 11 20 30
48 43 62 12 14 22 30 22 36 0 6 11 20 25 30 14 10 25 24 25 31 0 7 3 13 8 13
4 0 16 16 26 35 11 19 25 35 33 35 7 0 13 5 13 11 0 13 159 171 221 219 24 19
46 38 47 42 2 4 8 8 13 8 9 0 21 8 54 38 7 6 18 12 24 12 6 0 11 3 11 8 0 4
17 16 38 27 20 11 43 26 50 32 7 7 19 13 27 13 7 0 15 3 17 8 4 9 171 92 186
92 7 0 12 5 12 10 0 6 11 10 25 10 14 0 25 5 25 10 0 6 8 10 18 10 9 0 30 7
46 15 15 8 37 15 47 15 10 0 20 4 23 9 4 5 24 12 46 16 22 4 40 11 40 16 0 5
18 9 40 9 22 0 40 4 40 8 0 7 60 23 165 42 28 5 88 16 135 25 47 8 128 19 181
24 53 4 103 12 110 17 14 9 107 15 544 33 127 5 244 14 260 20 36 11 532 14
539 3z m-385 -398 c73 -8 81 -24 12 -24 -28 0 -52 -4 -55 -9 -3 -5 -27 -12
-53 -16 -27 -4 -52 -11 -58 -15 -5 -4 -39 -10 -75 -13 -106 -8 -244 -27 -265
-37 -11 -5 -40 -11 -65 -13 -25 -3 -74 -12 -110 -22 -70 -17 -109 -27 -180
-45 -25 -6 -49 -15 -54 -21 -6 -5 -27 -9 -47 -9 -35 0 -37 2 -51 45 l-15 45
26 6 c14 3 33 9 41 13 9 5 31 12 50 16 19 4 40 11 45 15 6 4 28 10 50 13 22 2
74 14 115 25 41 12 89 22 106 22 16 0 34 4 40 9 5 6 32 12 59 14 90 6 421 7
484 1z m1753 -346 c21 -23 38 -45 38 -50 0 -13 -24 -9 -46 7 -10 8 -31 15 -46
15 -15 0 -30 5 -33 10 -3 6 -21 10 -39 10 -18 0 -41 7 -52 15 -10 8 -31 15
-46 15 -15 0 -30 5 -33 10 -4 6 34 10 106 10 l112 0 39 -42z m603 -18 c3 -5
19 -10 34 -10 16 0 34 -7 41 -15 7 -8 23 -15 36 -15 13 0 24 -4 24 -10 0 -5 8
-10 19 -10 10 0 24 -7 31 -15 7 -8 21 -15 31 -15 11 0 19 -4 19 -10 0 -5 7
-10 15 -10 8 0 15 -4 15 -9 0 -5 10 -13 22 -17 12 -4 34 -18 49 -33 15 -14 35
-33 45 -42 26 -21 84 -87 84 -94 0 -6 11 -20 38 -50 6 -7 12 -18 12 -24 0 -6
4 -11 9 -11 5 0 12 -11 15 -25 4 -14 11 -25 16 -25 6 0 10 -11 10 -24 0 -13 7
-29 15 -36 8 -7 15 -23 15 -36 0 -12 5 -26 10 -29 12 -8 13 -75 1 -75 -17 0
-91 -82 -91 -101 0 -11 -4 -19 -8 -19 -9 0 -92 76 -92 84 0 10 -80 86 -90 86
-5 0 -10 5 -10 11 0 11 -24 39 -34 39 -3 0 -24 18 -46 40 -22 22 -44 40 -48
40 -13 0 -95 81 -109 107 -7 14 -13 43 -13 64 0 21 -4 41 -10 44 -5 3 -10 16
-10 28 0 12 -7 35 -15 51 -8 15 -15 39 -15 52 0 13 -4 24 -10 24 -5 0 -10 8
-10 18 0 9 -7 30 -15 46 -8 15 -15 30 -15 32 0 9 29 3 35 -6z m1297 -198 c2
-4 22 -22 46 -41 50 -39 102 -90 102 -99 0 -4 11 -20 25 -35 30 -32 125 -185
125 -202 0 -6 -5 -16 -11 -22 -10 -10 -10 -28 7 -225 4 -46 2 -68 -5 -68 -6 0
-11 9 -11 20 0 11 -6 37 -14 57 -7 21 -22 65 -32 98 -10 33 -22 64 -26 69 -4
6 -8 20 -8 33 0 13 -4 23 -10 23 -5 0 -10 7 -10 16 0 9 -6 28 -14 42 -8 15
-28 56 -45 92 -37 79 -72 141 -88 157 -6 7 -17 26 -25 43 -7 16 -16 30 -20 30
-5 0 -8 5 -8 10 0 12 17 14 22 2z m-5372 -99 c0 -3 -25 -30 -55 -58 -30 -29
-55 -55 -55 -59 0 -4 -11 -17 -25 -30 -14 -13 -25 -26 -25 -30 0 -4 -14 -21
-30 -38 -17 -16 -33 -40 -36 -54 -3 -13 -11 -24 -18 -24 -6 0 -19 -18 -29 -40
-9 -22 -21 -40 -27 -40 -5 0 -10 -9 -10 -20 0 -11 -4 -20 -10 -20 -5 0 -10 -6
-10 -14 0 -8 -6 -21 -12 -28 -7 -7 -18 -24 -24 -38 -6 -14 -17 -36 -23 -50
-16 -36 -49 -92 -58 -99 -11 -8 -32 -43 -39 -63 -4 -10 -10 -18 -15 -18 -5 0
-9 -6 -9 -14 0 -7 -11 -34 -25 -60 -14 -26 -25 -55 -25 -65 0 -9 -4 -21 -9
-26 -16 -16 -34 -96 -38 -170 -3 -62 -11 -90 -44 -157 -5 -10 -9 -24 -9 -31 0
-13 -19 -59 -41 -99 -5 -10 -9 -31 -9 -48 0 -16 -4 -30 -9 -30 -5 0 -12 -18
-16 -40 -4 -22 -11 -40 -16 -40 -5 0 -9 -11 -9 -25 0 -14 -4 -25 -9 -25 -5 0
-12 -16 -15 -35 -4 -19 -12 -35 -17 -35 -13 0 -7 95 16 250 9 63 21 142 25
175 14 93 33 175 42 175 4 0 8 12 8 28 0 29 31 137 43 148 4 4 7 18 7 30 0 13
4 25 9 29 5 3 12 19 16 35 4 17 11 30 16 30 5 0 9 8 9 17 0 20 81 186 93 191
4 2 7 12 7 22 0 10 4 20 8 22 4 2 18 20 31 41 12 20 27 37 32 37 5 0 9 7 9 15
0 8 5 15 10 15 6 0 10 7 10 15 0 9 7 18 15 21 8 4 15 11 15 16 0 12 206 218
218 218 4 0 18 10 32 23 14 12 42 31 63 42 20 11 37 23 37 27 0 5 7 8 15 8 8
0 15 -3 15 -7z m1328 -389 c24 -7 30 -24 8 -24 -8 0 -21 -6 -28 -13 -7 -6 -30
-21 -50 -32 -21 -11 -38 -22 -38 -25 0 -4 -16 -12 -35 -20 -19 -7 -36 -19 -39
-27 -3 -7 -15 -13 -27 -13 -11 0 -19 3 -17 8 24 48 32 62 40 62 4 0 8 7 8 15
0 8 4 15 9 15 5 0 12 11 15 24 3 14 14 27 24 29 26 7 104 7 130 1z m1172 -134
c178 -17 246 -27 267 -38 12 -7 42 -12 67 -12 25 0 46 -4 46 -10 0 -5 17 -10
38 -10 21 0 47 -7 58 -15 10 -8 34 -15 52 -15 17 0 32 -4 32 -10 0 -5 16 -10
35 -10 22 0 38 -6 41 -15 4 -8 19 -15 34 -15 16 0 32 -4 35 -10 3 -5 17 -10
31 -10 13 0 24 -4 24 -9 0 -5 10 -13 23 -16 43 -13 97 -39 97 -47 0 -4 9 -8
19 -8 11 0 23 -4 26 -10 3 -5 15 -10 25 -10 10 0 23 -6 27 -12 10 -16 49 -38
67 -38 8 0 16 -7 20 -15 3 -8 12 -15 20 -15 8 0 27 -11 42 -25 15 -14 31 -25
36 -25 5 0 31 -18 57 -40 26 -22 51 -40 55 -40 5 0 16 -8 25 -17 9 -10 48 -45
86 -78 78 -67 155 -146 155 -159 0 -3 15 -20 33 -38 18 -18 53 -64 77 -103 25
-38 47 -72 51 -75 3 -3 8 -12 12 -20 4 -8 13 -24 19 -35 38 -59 58 -96 58
-109 0 -8 11 -36 25 -62 14 -26 25 -57 25 -70 0 -13 4 -25 9 -28 5 -4 12 -24
16 -46 4 -22 10 -40 15 -40 4 0 11 -24 13 -52 3 -29 10 -84 16 -123 12 -87 13
-279 1 -365 -19 -136 -49 -260 -62 -260 -4 0 -8 -16 -8 -35 0 -19 -4 -35 -9
-35 -5 0 -12 -13 -16 -30 -4 -16 -11 -30 -16 -30 -5 0 -9 -11 -9 -24 0 -14 -4
-27 -9 -30 -5 -3 -24 -35 -42 -71 -18 -36 -35 -65 -38 -65 -3 0 -15 -18 -25
-40 -11 -22 -23 -40 -28 -40 -4 0 -8 -5 -8 -10 0 -10 -8 -22 -37 -55 -7 -7
-13 -16 -13 -19 0 -7 -112 -127 -154 -165 -16 -14 -46 -43 -67 -63 -22 -21
-43 -38 -49 -38 -5 0 -10 -5 -10 -11 0 -14 -25 -39 -39 -39 -6 0 -11 -7 -11
-15 0 -8 -5 -15 -11 -15 -7 0 -19 -8 -28 -18 -9 -10 -31 -27 -48 -37 -18 -11
-33 -25 -33 -32 0 -7 -5 -13 -11 -13 -7 0 -21 -10 -33 -22 -12 -13 -39 -36
-61 -52 -22 -17 -50 -40 -62 -53 -12 -13 -25 -23 -28 -23 -3 0 -18 -11 -33
-25 -15 -14 -30 -25 -35 -25 -4 0 -18 -11 -30 -23 -12 -13 -35 -32 -52 -43
-35 -22 -60 -42 -87 -67 -10 -9 -23 -17 -28 -17 -6 0 -21 -10 -33 -23 -12 -13
-37 -32 -54 -42 -18 -11 -33 -23 -33 -27 0 -4 -5 -8 -10 -8 -10 0 -22 -8 -55
-38 -7 -6 -18 -12 -24 -12 -6 0 -11 -4 -11 -9 0 -5 -8 -11 -17 -15 -24 -7 -66
-35 -98 -64 -7 -6 -18 -12 -24 -12 -6 0 -11 -4 -11 -10 0 -5 -17 -17 -37 -26
-21 -10 -42 -24 -46 -31 -4 -7 -13 -13 -19 -13 -6 0 -26 -11 -44 -25 -18 -14
-37 -25 -42 -25 -6 0 -12 -3 -14 -7 -1 -5 -30 -21 -63 -38 -32 -16 -65 -36
-73 -42 -7 -7 -20 -13 -28 -13 -8 0 -14 -4 -14 -10 0 -5 -11 -10 -24 -10 -13
0 -26 -7 -30 -15 -3 -8 -15 -15 -26 -15 -11 0 -20 -4 -20 -10 0 -5 -13 -10
-29 -10 -16 0 -34 -7 -41 -15 -9 -11 -32 -15 -80 -15 l-68 0 -10 44 c-6 30 -5
70 5 132 8 49 17 130 20 180 6 115 -7 146 -93 213 -5 4 -26 11 -45 15 -88 18
-209 38 -254 43 -27 3 -55 9 -61 14 -6 5 -32 12 -58 15 -26 4 -49 11 -52 15
-3 5 -15 9 -27 9 -24 1 -123 33 -134 44 -3 3 -14 6 -24 6 -18 0 -74 23 -184
76 -28 13 -55 24 -62 24 -6 0 -13 3 -15 8 -1 4 -23 17 -48 30 -69 35 -139 76
-158 93 -10 8 -24 18 -32 22 -19 9 -54 30 -60 38 -3 3 -23 18 -45 34 -22 16
-50 39 -61 52 -12 13 -24 23 -26 23 -7 0 -163 156 -212 211 -21 24 -50 61 -64
82 -13 20 -29 37 -33 37 -5 0 -9 9 -9 20 0 11 -6 23 -13 26 -8 3 -20 20 -27
39 -8 19 -17 35 -21 35 -4 0 -9 8 -13 18 -3 9 -10 24 -15 32 -5 8 -18 34 -27
58 -10 23 -21 42 -26 42 -4 0 -8 14 -8 30 0 17 -4 30 -10 30 -5 0 -10 8 -10
18 0 9 -7 30 -15 46 -8 15 -15 41 -15 55 0 15 -3 31 -7 35 -24 24 -36 143 -37
356 -1 216 9 313 35 362 5 10 9 31 9 48 0 16 4 30 10 30 5 0 13 18 16 40 4 22
10 40 15 40 5 0 9 9 9 20 0 11 11 38 25 60 14 22 25 44 25 50 0 6 10 27 23 48
12 20 31 54 42 75 11 20 23 37 27 37 5 0 8 6 8 13 0 8 11 24 25 37 14 13 25
28 25 35 0 6 8 18 18 27 9 8 33 35 52 59 46 56 234 239 247 239 2 0 16 11 31
25 15 14 31 25 36 25 5 0 19 11 32 25 13 14 26 25 30 25 4 0 22 11 40 25 18
14 40 25 48 25 9 0 16 4 16 10 0 5 17 17 38 27 20 9 39 20 42 23 8 11 72 40
87 40 7 0 13 4 13 8 0 5 19 16 43 25 23 10 55 24 70 32 16 8 37 15 47 15 10 0
22 5 25 10 3 6 17 10 29 10 13 0 29 7 36 15 7 8 25 15 41 15 15 0 31 5 34 10
3 6 20 10 36 10 17 0 37 7 45 15 9 8 33 15 54 15 21 0 42 5 45 10 3 6 24 10
46 10 22 0 50 5 62 12 66 35 522 59 737 38z m2757 -422 c-3 -8 -6 -5 -6 6 -1
11 2 17 5 13 3 -3 4 -12 1 -19z m513 -1523 c0 -78 -4 -136 -10 -140 -6 -4 -10
45 -10 140 0 95 4 144 10 140 6 -4 10 -62 10 -140z m-21 -510 c-2 -122 -10
-180 -21 -139 -8 32 -10 210 -2 249 13 70 24 14 23 -110z m-5977 -143 c13
-132 20 -177 30 -190 10 -11 18 -42 35 -124 3 -17 1 -28 -6 -28 -6 0 -11 7
-11 15 0 8 -6 15 -12 15 -16 0 -60 65 -72 105 -11 36 -11 97 -2 185 15 136 27
143 38 22z m5497 -525 c-1 -215 -13 -273 -22 -107 -12 201 -7 307 14 294 5 -3
9 -87 8 -187z m-779 -31 c0 -17 -32 -80 -42 -84 -5 -2 -8 -10 -8 -17 0 -16
-32 -79 -42 -83 -5 -2 -8 -11 -8 -20 0 -8 -6 -23 -14 -31 -8 -9 -26 -38 -42
-66 -15 -27 -30 -52 -33 -55 -3 -3 -15 -22 -26 -42 -11 -21 -23 -38 -27 -38
-5 0 -8 -5 -8 -10 0 -10 -8 -22 -37 -55 -7 -7 -13 -18 -13 -24 0 -6 -4 -11 -9
-11 -5 0 -12 -9 -16 -20 -3 -11 -22 -35 -41 -55 -19 -19 -34 -37 -34 -40 0
-16 -300 -315 -316 -315 -3 0 -17 -11 -32 -25 -15 -14 -30 -25 -34 -25 -4 0
-21 -13 -37 -29 -16 -16 -48 -39 -70 -52 -23 -12 -41 -26 -41 -30 0 -4 -11
-10 -25 -13 -14 -4 -25 -11 -25 -16 0 -6 -9 -10 -20 -10 -11 0 -20 -4 -20 -8
0 -4 -30 -23 -67 -42 -38 -19 -69 -38 -71 -42 -2 -5 -9 -8 -16 -8 -7 0 -34
-11 -60 -25 -26 -14 -52 -25 -59 -25 -7 0 -34 -12 -62 -25 -27 -14 -60 -25
-72 -25 -12 0 -25 -4 -28 -10 -3 -5 -13 -10 -22 -10 -8 0 -29 -6 -46 -14 -56
-25 -187 -44 -187 -27 0 6 9 11 20 11 11 0 28 4 38 10 9 5 35 16 57 26 69 28
110 49 113 57 2 4 10 7 17 7 16 0 79 32 83 43 2 4 12 7 23 7 10 0 19 4 19 9 0
5 11 12 25 15 14 4 25 11 25 16 0 6 9 10 19 10 11 0 21 4 23 8 2 4 28 23 58
41 30 19 57 36 60 40 3 3 22 15 43 25 20 11 37 23 37 28 0 4 6 8 13 8 7 0 24
11 39 25 15 14 30 25 33 25 6 0 20 11 50 38 7 6 17 12 21 12 4 0 17 11 30 25
13 14 26 25 29 25 4 0 13 6 20 13 33 29 45 37 55 37 5 0 10 5 10 11 0 11 24
39 34 39 15 0 237 216 316 308 25 29 64 73 88 98 23 25 42 49 42 53 0 4 16 24
35 44 19 20 35 40 35 44 0 5 11 20 25 35 14 15 25 31 25 37 0 5 3 11 8 13 10
4 92 128 92 139 0 5 7 9 15 9 9 0 15 9 15 25 0 14 5 25 10 25 6 0 10 -6 10
-14z m-5729 -218 c0 -46 5 -105 10 -133 5 -27 14 -90 19 -140 23 -222 27 -252
38 -278 7 -16 12 -46 12 -67 0 -21 5 -42 10 -45 6 -3 10 -25 10 -48 0 -23 7
-51 15 -61 8 -11 15 -32 15 -47 0 -15 4 -30 9 -33 5 -4 12 -24 16 -46 4 -22
11 -42 16 -46 5 -3 9 -16 9 -30 0 -13 5 -24 10 -24 6 0 10 -7 10 -16 0 -9 6
-28 14 -42 7 -15 29 -58 48 -97 48 -97 70 -136 91 -159 10 -11 20 -30 23 -42
3 -12 16 -27 30 -34 13 -8 24 -17 24 -22 0 -26 151 -188 228 -245 20 -16 42
-33 47 -39 19 -20 84 -64 94 -64 6 0 11 -4 11 -10 0 -5 5 -10 11 -10 6 0 25
-11 43 -25 18 -14 40 -25 49 -25 10 0 17 -4 17 -9 0 -5 11 -12 25 -15 14 -4
25 -11 25 -16 0 -6 11 -10 24 -10 13 0 26 -3 28 -7 5 -12 67 -43 86 -43 9 0
26 -7 36 -15 11 -8 28 -15 38 -15 10 0 18 -4 18 -9 0 -5 12 -11 28 -14 64 -14
122 -32 122 -39 0 -5 15 -8 34 -8 18 0 50 -7 69 -15 20 -8 50 -15 67 -15 16 0
30 -4 30 -9 0 -5 21 -11 48 -14 99 -11 212 -32 212 -39 0 -11 -254 -10 -265 1
-6 6 -102 11 -214 13 -152 2 -205 6 -209 16 -2 6 -10 12 -17 12 -13 0 -74 29
-85 40 -10 10 -45 30 -82 47 -21 10 -38 21 -38 25 0 5 -6 8 -14 8 -8 0 -21 6
-28 12 -7 7 -30 22 -51 32 -20 11 -37 23 -37 28 0 4 -9 8 -19 8 -10 0 -21 7
-25 15 -3 8 -12 15 -20 15 -8 0 -16 3 -18 8 -1 4 -29 26 -60 50 -32 23 -58 46
-58 51 0 4 -11 14 -25 21 -14 7 -25 19 -25 27 0 7 -5 13 -11 13 -13 0 -39 25
-39 38 0 6 -6 12 -13 15 -8 3 -36 36 -62 74 -27 37 -55 72 -62 76 -7 4 -13 15
-13 23 0 8 -9 25 -20 37 -23 24 -21 21 -104 182 -31 61 -56 116 -56 123 0 6
-4 12 -10 12 -5 0 -10 9 -10 21 0 11 -7 27 -15 35 -8 9 -15 29 -15 45 0 16 -4
29 -10 29 -5 0 -10 15 -10 34 0 18 -7 39 -15 46 -8 7 -15 27 -15 46 0 18 -4
36 -10 39 -5 3 -10 22 -10 41 0 20 -5 45 -12 57 -24 43 -31 136 -35 460 -2
222 0 327 7 327 6 0 10 -32 11 -82z m353 -313 c4 -19 11 -35 16 -35 6 0 10
-11 10 -25 0 -14 5 -25 10 -25 6 0 10 -11 10 -24 0 -14 7 -31 15 -40 8 -8 15
-24 15 -34 0 -11 3 -22 8 -24 10 -4 42 -67 42 -84 0 -8 4 -14 9 -14 5 0 12
-13 16 -30 4 -16 11 -30 16 -30 5 0 9 -8 9 -18 0 -10 5 -23 12 -30 15 -15 27
-94 38 -247 4 -66 11 -140 15 -165 l8 -45 -21 21 c-11 11 -23 30 -26 42 -4 12
-12 22 -17 22 -5 0 -9 6 -9 14 0 17 -32 80 -42 84 -5 2 -8 12 -8 23 0 19 -2
26 -33 87 -9 19 -17 47 -17 63 0 16 -4 29 -9 29 -5 0 -12 21 -16 48 -4 26 -10
52 -15 57 -4 6 -10 28 -13 50 -10 89 -32 195 -39 195 -5 0 -8 38 -8 85 0 87
13 113 24 50z m1973 -362 c24 -3 46 -10 49 -14 3 -5 24 -9 46 -9 42 0 118 -27
118 -42 0 -4 5 -8 11 -8 6 0 25 -11 43 -25 18 -14 36 -25 40 -25 4 0 22 -11
40 -25 18 -14 40 -25 49 -25 10 0 17 -4 17 -10 0 -5 11 -12 25 -16 14 -3 25
-10 25 -15 0 -5 11 -9 25 -9 14 0 25 -4 25 -10 0 -5 4 -10 10 -10 18 0 90 -35
90 -44 0 -4 -28 -6 -62 -2 -35 3 -107 9 -161 12 -54 4 -100 11 -103 15 -3 5
-14 9 -25 9 -19 0 -88 33 -98 47 -3 5 -24 22 -46 38 -79 59 -175 149 -175 164
0 5 -3 11 -7 14 -5 2 -1 2 7 0 8 -2 34 -7 57 -10z m3633 -122 c0 -9 -7 -26
-15 -37 -8 -10 -15 -28 -15 -40 0 -20 -27 -83 -39 -94 -3 -3 -15 -21 -25 -40
-21 -40 -123 -140 -142 -140 -7 0 -14 -4 -16 -9 -1 -4 -13 -12 -25 -15 -17 -5
-23 -3 -23 7 0 9 3 17 8 19 8 3 57 62 86 102 11 15 28 37 38 48 10 12 18 27
18 34 0 7 3 14 8 16 11 5 62 75 62 86 0 6 6 12 13 15 8 3 22 21 31 41 17 37
36 40 36 7z m780 -462 c0 -50 -5 -86 -12 -94 -7 -8 -24 -28 -38 -46 -37 -46
-88 -99 -95 -99 -4 0 -12 -6 -19 -12 -7 -7 -33 -29 -56 -48 -24 -19 -50 -43
-59 -52 -8 -10 -20 -18 -26 -18 -7 0 -22 -11 -35 -25 -13 -14 -28 -25 -33 -25
-6 0 -18 -6 -26 -14 -20 -17 -120 -75 -143 -83 -10 -3 -18 -9 -18 -14 0 -5
-11 -9 -25 -9 -14 0 -25 5 -25 10 0 6 9 10 20 10 11 0 36 16 54 35 19 19 36
35 39 35 19 0 247 230 247 248 0 4 9 14 20 22 11 8 20 20 20 27 0 7 6 13 13
13 8 0 20 11 27 25 7 14 17 25 22 25 12 0 38 26 38 37 0 5 14 23 30 41 17 18
30 37 30 43 0 5 4 9 9 9 5 0 13 9 16 20 14 43 25 16 25 -61z m-4540 -29 c0 -5
-9 -10 -20 -10 -11 0 -20 5 -20 10 0 6 9 10 20 10 11 0 20 -4 20 -10z m-1120
-77 c0 -7 5 -13 11 -13 6 0 33 -16 59 -35 26 -19 51 -35 55 -35 3 0 21 -11 39
-25 18 -14 40 -25 48 -25 9 0 18 -7 22 -15 3 -8 15 -15 26 -15 11 0 20 -4 20
-10 0 -5 8 -10 19 -10 10 0 24 -7 31 -15 7 -8 21 -15 31 -15 11 0 19 -4 19
-10 0 -5 5 -10 11 -10 16 0 82 -32 97 -47 7 -7 20 -13 28 -13 8 0 14 -4 14
-10 0 -5 8 -10 18 -10 10 0 24 -6 30 -12 7 -7 52 -16 100 -20 131 -11 185 -18
207 -28 24 -11 127 -30 215 -40 66 -8 165 -22 276 -40 34 -6 99 -10 146 -10
46 0 88 -4 94 -9 49 -47 1997 -54 2429 -9 55 6 141 14 190 18 124 11 255 29
269 37 6 4 36 11 66 15 30 4 72 10 93 14 24 4 37 2 37 -5 0 -6 -11 -11 -23
-11 -13 0 -27 -3 -31 -7 -12 -13 -100 -43 -123 -43 -13 0 -23 -4 -23 -9 0 -5
-20 -12 -45 -15 -24 -4 -47 -11 -50 -17 -4 -5 -25 -9 -49 -9 -23 0 -46 -3 -50
-7 -11 -11 -136 -33 -246 -43 -52 -5 -106 -11 -120 -15 -92 -22 -1627 -47
-1654 -26 -6 4 -132 12 -281 15 -148 4 -301 11 -340 16 -38 5 -133 10 -211 10
-77 0 -144 3 -148 8 -7 7 -221 24 -456 38 -58 3 -112 8 -120 12 -8 3 -49 12
-90 19 -168 30 -244 47 -285 62 -11 5 -45 16 -75 26 -30 10 -59 22 -65 26 -5
5 -16 9 -25 9 -9 0 -40 11 -68 25 -29 14 -54 25 -57 25 -3 0 -23 11 -45 25
-22 14 -46 25 -55 25 -8 0 -15 4 -15 10 0 5 -10 12 -23 15 -13 4 -31 17 -41
31 -11 13 -24 24 -31 24 -15 0 -70 51 -78 72 -5 14 0 19 21 24 71 16 102 46
102 100 0 37 28 45 67 20 18 -11 33 -27 33 -33z m935 -773 c22 -5 6 -8 -53 -9
-53 -1 -81 3 -77 9 7 11 85 11 130 0z m2871 3 c21 -8 -136 -27 -356 -42 -74
-5 -151 -14 -170 -20 -19 -6 -112 -11 -205 -11 -102 0 -175 -4 -181 -10 -7 -7
-221 -9 -640 -6 -658 5 -940 14 -987 34 -16 7 -68 12 -117 12 -53 0 -92 4 -95
11 -5 7 35 9 136 5 424 -18 2151 3 2174 26 10 9 418 10 441 1z"/>
<path d="M4045 4681 c-16 -9 -31 -19 -33 -23 -2 -5 -10 -8 -17 -8 -23 0 -26
-84 -23 -533 l3 -427 30 -25 30 -24 261 -1 260 0 26 28 c35 37 47 79 34 117
-11 30 -29 55 -41 55 -4 0 -13 7 -21 15 -13 12 -48 15 -185 15 l-169 0 0 353
c0 193 -4 367 -9 385 -12 41 -26 54 -76 73 -36 14 -43 14 -70 0z"/>
<path d="M4795 4682 c-34 -20 -55 -38 -55 -47 0 -4 -7 -13 -15 -21 -13 -13
-15 -78 -15 -455 0 -265 4 -439 9 -439 5 0 13 -10 17 -22 12 -38 45 -57 97
-58 41 0 53 5 78 29 l29 29 0 469 c0 524 6 479 -73 516 -45 20 -35 20 -72 -1z"/>
<path d="M5200 4685 c-14 -8 -32 -14 -41 -15 -9 0 -24 -16 -33 -35 -15 -30
-16 -84 -14 -486 2 -351 6 -453 16 -457 6 -2 12 -8 12 -14 0 -22 37 -37 89
-38 48 0 56 3 82 33 l29 32 0 262 c0 240 7 310 25 253 3 -11 11 -20 16 -20 5
0 9 -7 9 -15 0 -8 4 -15 8 -15 4 0 16 -15 27 -32 10 -18 25 -39 33 -47 7 -8
25 -32 39 -54 14 -22 34 -49 44 -60 10 -12 21 -29 25 -39 3 -10 10 -18 15 -18
5 0 9 -5 9 -10 0 -6 11 -23 25 -38 14 -15 25 -32 25 -39 0 -7 7 -13 15 -13 8
0 15 -7 15 -15 0 -8 5 -15 10 -15 6 0 10 -6 10 -13 0 -7 11 -24 25 -39 14 -15
25 -29 25 -32 0 -3 14 -19 30 -36 28 -28 35 -31 87 -28 54 3 59 5 85 43 l27
40 1 442 c0 357 -3 444 -13 450 -8 4 -16 16 -20 26 -4 9 -15 20 -24 24 -10 3
-26 13 -36 22 -17 14 -21 14 -49 -2 -16 -9 -34 -17 -40 -17 -5 0 -18 -10 -29
-22 -17 -21 -18 -44 -19 -285 0 -145 -3 -263 -7 -263 -8 0 -63 61 -63 71 0 5
-13 22 -30 39 -16 17 -30 34 -30 39 0 4 -16 25 -35 45 -19 21 -35 40 -35 42 0
6 -49 72 -67 92 -7 7 -13 17 -13 20 0 4 -16 25 -35 47 -19 22 -35 45 -35 50 0
6 -16 27 -35 47 -19 20 -35 40 -35 45 0 7 -82 63 -91 63 -2 -1 -15 -7 -29 -15z"/>
<path d="M6195 4680 c-3 -5 -13 -10 -21 -10 -9 0 -24 -10 -35 -22 -17 -22 -18
-48 -19 -486 l0 -464 29 -29 29 -29 266 0 c289 0 279 -2 314 58 14 25 16 92 3
92 -5 0 -11 9 -14 21 -3 11 -15 23 -26 26 -11 3 -22 11 -25 19 -4 11 -40 14
-181 14 l-175 0 0 85 0 85 174 0 c142 0 176 3 186 15 7 8 19 15 26 15 8 0 16
11 20 25 3 14 10 25 15 25 5 0 9 18 9 40 0 22 -4 40 -10 40 -5 0 -10 8 -10 18
0 10 -13 25 -29 35 -24 14 -56 17 -199 17 -168 0 -170 0 -176 23 -10 39 -7
145 5 153 7 4 74 6 151 5 141 -2 197 7 227 37 23 22 41 61 41 86 0 31 -22 76
-37 76 -7 0 -13 4 -13 9 0 5 -14 14 -31 20 -41 14 -485 15 -494 1z"/>
</g>
</svg>
